<svg width="245" height="46" viewBox="0 0 245 46" fill="none" xmlns="http://www.w3.org/2000/svg">
<path d="M34.004 45H25.246V28.992C22.81 29.8427 20.5673 30.4807 18.518 30.906C16.5073 31.3313 14.4773 31.544 12.428 31.544C8.56133 31.544 5.526 30.616 3.322 28.76C1.15667 26.8653 0.0740002 24.178 0.0740002 20.698V3.588H8.832V18.204C8.832 20.2147 9.296 21.7227 10.224 22.728C11.152 23.7333 12.718 24.236 14.922 24.236C16.546 24.236 18.17 24.062 19.794 23.714C21.418 23.366 23.2353 22.844 25.246 22.148V3.588H34.004V45ZM56.7133 12.694C60.9666 12.694 64.2146 13.622 66.4573 15.478C68.7386 17.2953 69.8793 20.0987 69.8793 23.888V45H63.8473L62.1653 40.708H61.9333C60.5799 42.4093 59.1493 43.6467 57.6413 44.42C56.1333 45.1933 54.0646 45.58 51.4353 45.58C48.6126 45.58 46.2733 44.768 44.4173 43.144C42.5613 41.4813 41.6333 38.9487 41.6333 35.546C41.6333 32.182 42.8126 29.7073 45.1713 28.122C47.5299 26.498 51.0679 25.6087 55.7853 25.454L61.2953 25.28V23.888C61.2953 22.2253 60.8506 21.0073 59.9613 20.234C59.1106 19.4607 57.9119 19.074 56.3653 19.074C54.8186 19.074 53.3106 19.306 51.8413 19.77C50.3719 20.1953 48.9026 20.7367 47.4333 21.394L44.5913 15.536C46.2926 14.6467 48.1679 13.9507 50.2173 13.448C52.3053 12.9453 54.4706 12.694 56.7133 12.694ZM61.2953 30.326L57.9313 30.442C55.1473 30.5193 53.2139 31.022 52.1313 31.95C51.0486 32.878 50.5073 34.096 50.5073 35.604C50.5073 36.9187 50.8939 37.866 51.6673 38.446C52.4406 38.9873 53.4459 39.258 54.6833 39.258C56.5393 39.258 58.1053 38.7167 59.3813 37.634C60.6573 36.5127 61.2953 34.9467 61.2953 32.936V30.326ZM104.941 19.828H94.5592V45H85.9172V19.828H75.5352V13.332H104.941V19.828ZM138.044 27.948H113.626L110.61 21.916V21.336H135.028L138.044 27.426V27.948ZM145.346 26.034C145.346 19.0353 146.661 13.6027 149.29 9.736C151.958 5.86933 156.347 3.39467 162.456 2.312C164.506 1.964 166.574 1.674 168.662 1.442C170.789 1.17133 172.974 0.900665 175.216 0.629997L176.202 8.17C174.888 8.32466 173.438 8.49866 171.852 8.692C170.306 8.88533 168.759 9.07866 167.212 9.272C165.704 9.42666 164.351 9.60066 163.152 9.794C161.219 10.1033 159.614 10.5867 158.338 11.244C157.062 11.8627 156.076 12.868 155.38 14.26C154.723 15.652 154.317 17.6627 154.162 20.292H154.568C155.032 19.5573 155.67 18.8227 156.482 18.088C157.333 17.3533 158.377 16.7347 159.614 16.232C160.852 15.7293 162.263 15.478 163.848 15.478C167.638 15.478 170.634 16.638 172.838 18.958C175.081 21.278 176.202 24.7387 176.202 29.34C176.202 32.936 175.545 35.9327 174.23 38.33C172.916 40.7273 171.098 42.5447 168.778 43.782C166.458 44.9807 163.771 45.58 160.716 45.58C156.038 45.58 152.306 43.898 149.522 40.534C146.738 37.17 145.346 32.3367 145.346 26.034ZM161.238 38.562C163.056 38.562 164.525 37.9433 165.646 36.706C166.806 35.4687 167.386 33.2647 167.386 30.094C167.386 27.5807 166.961 25.5893 166.11 24.12C165.298 22.612 163.868 21.858 161.818 21.858C160.581 21.858 159.421 22.1673 158.338 22.786C157.294 23.366 156.405 24.0427 155.67 24.816C154.936 25.5507 154.433 26.1887 154.162 26.73C154.162 28.702 154.375 30.5967 154.8 32.414C155.226 34.2313 155.941 35.72 156.946 36.88C157.99 38.0013 159.421 38.562 161.238 38.562ZM212.108 29.108C212.108 34.3667 210.716 38.4267 207.932 41.288C205.187 44.1493 201.436 45.58 196.68 45.58C193.742 45.58 191.112 44.942 188.792 43.666C186.511 42.39 184.713 40.534 183.398 38.098C182.084 35.6233 181.426 32.6267 181.426 29.108C181.426 23.8493 182.799 19.8087 185.544 16.986C188.29 14.1633 192.06 12.752 196.854 12.752C199.832 12.752 202.461 13.39 204.742 14.666C207.024 15.942 208.822 17.798 210.136 20.234C211.451 22.6313 212.108 25.5893 212.108 29.108ZM190.242 29.108C190.242 32.24 190.745 34.618 191.75 36.242C192.794 37.8273 194.476 38.62 196.796 38.62C199.078 38.62 200.721 37.8273 201.726 36.242C202.77 34.618 203.292 32.24 203.292 29.108C203.292 25.976 202.77 23.6367 201.726 22.09C200.721 20.5047 199.058 19.712 196.738 19.712C194.457 19.712 192.794 20.5047 191.75 22.09C190.745 23.6367 190.242 25.976 190.242 29.108ZM244.9 19.828H234.518V45H225.876V19.828H215.494V13.332H244.9V19.828Z" fill="white"/>
</svg>
